<svg width="125" height="41" viewBox="0 0 125 41" fill="none" xmlns="http://www.w3.org/2000/svg">
<g clip-path="url(#clip0_1521_358)">
<path d="M41.63 17.6859C42.7089 17.6859 43.7021 17.9001 44.5755 18.3284C45.466 18.7567 46.2024 19.3813 46.7846 20.1843L44.2844 22.3258C43.4795 21.4335 42.5548 21.0052 41.5273 21.0052C40.6197 21.0052 39.8491 21.3443 39.2326 22.0224C38.6161 22.7005 38.3078 23.575 38.3078 24.6636C38.3078 25.7522 38.6161 26.6266 39.2326 27.3047C39.8491 27.9829 40.6197 28.3219 41.5273 28.3219C42.589 28.3219 43.5309 27.8758 44.3358 26.9835L46.8017 29.1607C45.5345 30.8203 43.8049 31.6591 41.63 31.6591C39.5922 31.6591 37.9311 30.9988 36.6639 29.6961C35.3966 28.3755 34.763 26.7158 34.763 24.6814C34.763 22.647 35.3966 20.9874 36.6639 19.6668C37.9482 18.3462 39.5922 17.6859 41.63 17.6859Z" fill="#333333"/>
<path d="M52.7783 31.32H49.3019V11.6005H52.7783V31.32Z" fill="#333333"/>
<path d="M62.1456 17.6859C63.995 17.6859 65.502 18.3284 66.6665 19.6311C67.831 20.916 68.4132 22.5935 68.4132 24.6636C68.4132 25.1276 68.3961 25.5202 68.3447 25.8771H59.2001C59.3713 26.805 59.7481 27.4832 60.3303 27.9472C60.9126 28.4112 61.6489 28.6253 62.5052 28.6253C63.7039 28.6253 64.7828 28.197 65.7589 27.3583L67.7967 29.6604C66.3583 30.9988 64.5259 31.6769 62.2997 31.6769C60.3303 31.6769 58.7206 31.0345 57.4705 29.7674C56.2375 28.4825 55.6039 26.8229 55.6039 24.7349C55.6039 22.647 56.2033 20.9695 57.4191 19.6668C58.635 18.3462 60.2105 17.6859 62.1456 17.6859ZM62.1113 20.7732C61.3064 20.7732 60.6557 21.0052 60.1762 21.4692C59.6967 21.9332 59.3713 22.5935 59.2172 23.4322H64.9198C64.7657 22.5756 64.4403 21.9153 63.9608 21.4513C63.4813 21.0052 62.8648 20.7732 62.1113 20.7732Z" fill="#333333"/>
<path d="M78.2428 17.6859C78.9278 17.6859 79.5443 17.7751 80.058 17.9714L79.5443 21.5227C78.9278 21.2372 78.2257 21.0944 77.4379 21.0944C76.616 21.0944 75.9481 21.3443 75.4686 21.8618C74.972 22.3793 74.7322 23.111 74.7322 24.0747V31.3021H71.2559V18.0428H74.6295V19.4883C75.383 18.2927 76.5988 17.6859 78.2428 17.6859Z" fill="#333333"/>
<path d="M85.8805 22.7719H87.0964L90.7269 18.0428H94.9909L89.9049 24.2888L95.0252 31.32H90.7611L87.0621 25.9484H85.8977V31.32H82.4213V11.6005H85.8977V22.7719H85.8805Z" fill="#333333"/>
<path d="M97.3028 27.1263C97.8165 26.6088 98.433 26.3411 99.118 26.3411C99.803 26.3411 100.402 26.6088 100.916 27.1263C101.43 27.6438 101.687 28.2684 101.687 28.9822C101.687 29.6961 101.43 30.3207 100.916 30.856C100.402 31.3914 99.803 31.6591 99.118 31.6591C98.433 31.6591 97.8165 31.3914 97.3028 30.856C96.789 30.3207 96.5322 29.6961 96.5322 28.9822C96.5322 28.2684 96.789 27.6616 97.3028 27.1263Z" fill="#333333"/>
<path d="M104.769 12.0645C105.197 11.6184 105.711 11.4042 106.345 11.4042C106.961 11.4042 107.492 11.6362 107.92 12.0824C108.348 12.5285 108.571 13.0817 108.571 13.7063C108.571 14.3488 108.348 14.8841 107.92 15.3303C107.492 15.7764 106.961 15.9906 106.345 15.9906C105.728 15.9906 105.197 15.7764 104.769 15.3303C104.341 14.8841 104.136 14.3488 104.136 13.7063C104.118 13.0639 104.341 12.5107 104.769 12.0645ZM108.091 31.32H104.615V18.0428H108.091V31.32Z" fill="#333333"/>
<path d="M117.887 17.6859C119.89 17.6859 121.551 18.3462 122.887 19.6846C124.206 21.0052 124.874 22.6827 124.874 24.6814C124.874 26.6801 124.206 28.3398 122.887 29.6782C121.569 30.9988 119.89 31.6769 117.887 31.6769C115.883 31.6769 114.239 31.0166 112.92 29.6782C111.602 28.3398 110.934 26.6801 110.934 24.6814C110.934 22.6827 111.602 21.0231 112.92 19.6846C114.239 18.3462 115.9 17.6859 117.887 17.6859ZM117.887 21.0231C116.911 21.0231 116.089 21.3621 115.438 22.0581C114.787 22.7362 114.462 23.6107 114.462 24.6814C114.462 25.7522 114.787 26.6266 115.438 27.3047C116.089 27.9829 116.893 28.3398 117.887 28.3398C118.88 28.3398 119.702 28.0007 120.353 27.3047C121.003 26.6266 121.329 25.7522 121.329 24.6814C121.329 23.6107 121.003 22.7362 120.353 22.0581C119.702 21.3621 118.88 21.0231 117.887 21.0231Z" fill="#333333"/>
<path d="M24.4025 23.7534C23.6319 27.1084 20.9947 37.8337 20.9947 37.8337C20.909 38.2084 20.5152 38.4939 20.1555 38.4404L17.7067 38.1727C17.3299 38.137 17.0217 37.7801 16.9874 37.3875C16.9874 37.3875 16.2853 25.5915 17.0217 21.3264C17.7409 17.0435 33.7355 2.49924 34.7287 3.01676C35.7049 3.51644 25.1902 20.3984 24.4025 23.7534Z" fill="#00BFD0"/>
<path d="M14.8468 13.7959C11.6444 14.5989 1.3353 17.3293 1.3353 17.3293C0.975684 17.4364 0.718812 17.829 0.753062 18.2037L1.00993 20.7735C1.04418 21.1661 1.38668 21.4873 1.76342 21.523C1.76342 21.523 13.0829 22.2547 17.1757 21.4873C21.2857 20.7378 35.2424 4.06997 34.7458 3.03492C34.2663 2.03556 18.0662 12.975 14.8468 13.7959Z" fill="#FF5C28"/>
<path d="M34.763 3.05246L34.7459 3.03461L34.7288 3.01676C33.7355 2.49924 17.741 17.0435 17.0217 21.3264C17.0046 21.3978 17.0046 21.4692 16.9875 21.5406C17.056 21.5227 17.1245 21.5227 17.193 21.5049C21.2858 20.7375 35.2425 4.06966 34.763 3.05246Z" fill="#004576"/>
<path d="M16.9875 21.5227C15.6689 21.7369 13.7338 21.8261 11.6617 21.8261L1.84917 32.0695C1.54092 32.3907 1.54092 32.9261 1.84917 33.2651L5.73649 37.3161C6.04474 37.6373 6.55848 37.6373 6.88386 37.3161L16.6792 27.0727C16.6964 24.9312 16.782 22.8968 16.9875 21.5227Z" fill="#F3A326"/>
</g>
<defs>
<clipPath id="clip0_1521_358">
<rect width="124.12" height="35.4593" fill="white" transform="translate(0.753174 2.98108)"/>
</clipPath>
</defs>
</svg>
